<?xml version="1.0" standalone="no"?>
<!DOCTYPE svg PUBLIC "-//W3C//DTD SVG 1.1//EN" "http://www.w3.org/Graphics/SVG/1.1/DTD/svg11.dtd" >
<svg xmlns="http://www.w3.org/2000/svg">
<metadata>
Created by FontForge 20120731 at Fri Mar 18 16:57:19 2016
 By Ads
</metadata>
<defs>
<font id="iconfont" horiz-adv-x="1024" >
  <font-face 
    font-family="iconfont"
    font-weight="500"
    font-stretch="normal"
    units-per-em="1024"
    panose-1="2 0 6 3 0 0 0 0 0 0"
    ascent="896"
    descent="-128"
    x-height="792"
    bbox="0 -201 1820 896"
    underline-thickness="50"
    underline-position="-100"
    unicode-range="U+0078-E61E"
  />
<missing-glyph horiz-adv-x="374" 
d="M34 0v682h272v-682h-272zM68 34h204v614h-204v-614z" />
    <glyph glyph-name=".notdef" horiz-adv-x="374" 
d="M34 0v682h272v-682h-272zM68 34h204v614h-204v-614z" />
    <glyph glyph-name=".null" horiz-adv-x="0" 
 />
    <glyph glyph-name="nonmarkingreturn" horiz-adv-x="341" 
 />
    <glyph glyph-name="x" unicode="x" horiz-adv-x="1001" 
d="M281 543q-27 -1 -53 -1h-83q-18 0 -36.5 -6t-32.5 -18.5t-23 -32t-9 -45.5v-76h912v41q0 16 -0.5 30t-0.5 18q0 13 -5 29t-17 29.5t-31.5 22.5t-49.5 9h-133v-97h-438v97zM955 310v-52q0 -23 0.5 -52t0.5 -58t-10.5 -47.5t-26 -30t-33 -16t-31.5 -4.5q-14 -1 -29.5 -0.5
t-29.5 0.5h-32l-45 128h-439l-44 -128h-29h-34q-20 0 -45 1q-25 0 -41 9.5t-25.5 23t-13.5 29.5t-4 30v167h911zM163 247q-12 0 -21 -8.5t-9 -21.5t9 -21.5t21 -8.5q13 0 22 8.5t9 21.5t-9 21.5t-22 8.5zM316 123q-8 -26 -14 -48q-5 -19 -10.5 -37t-7.5 -25t-3 -15t1 -14.5
t9.5 -10.5t21.5 -4h37h67h81h80h64h36q23 0 34 12t2 38q-5 13 -9.5 30.5t-9.5 34.5q-5 19 -11 39h-368zM336 498v228q0 11 2.5 23t10 21.5t20.5 15.5t34 6h188q31 0 51.5 -14.5t20.5 -52.5v-227h-327z" />
    <glyph glyph-name="uniE600" unicode="&#xe600;" horiz-adv-x="1196" 
d="M519 -126q11 -11 27.5 -30t20.5 -23q9 -9 9 -14l5 -5l4 3l1 2l38 38l24 24h500l-219 357h-34q-7 -9 -19 -28t-19 -29h48v-5l133 -238h-405q-6 -8 -13 -15t-13 -12t-7 -6l-5 -5q-2 -2 -4.5 -3.5t-4.5 -1.5q-5 0 -14 10l-34 33h-414l5 10l109 233h48q-22 29 -43 57h-33
l-186 -352h495zM581 798q-94 0 -174 -45.5t-127 -123.5t-47 -169q0 -56 30.5 -123.5t76 -126t94.5 -109t89.5 -79.5t57.5 -29t49 21.5t70.5 57t79 83.5t73.5 98.5t54.5 105.5t21.5 101q0 68 -27 130.5t-73.5 108t-111 72.5t-136.5 27zM586 55h-5q-26 14 -72 56t-96 99
t-86 126t-36 124q0 117 85.5 199t204.5 82q58 0 111.5 -23t93 -60.5t63 -89.5t23.5 -108q1 -45 -22.5 -100t-60 -103t-77 -92t-74.5 -72.5t-52 -37.5zM581 612q-18 0 -35 -4.5t-31.5 -13t-27 -20.5t-21 -26.5t-13.5 -32.5t-5 -36q0 -36 17 -66.5t48 -49t68 -18.5
q54 0 93.5 38.5t39.5 95.5q0 54 -38.5 93.5t-94.5 39.5zM581 398q-16 0 -30.5 6t-26 16.5t-18 25.5t-6.5 33q0 33 23 57t58 24q33 0 57 -23t24 -58q0 -33 -23 -57t-58 -24z" />
    <glyph glyph-name="uniE601" unicode="&#xe601;" horiz-adv-x="1186" 
d="M576 607q-15 0 -29.5 -3.5t-28 -9.5t-25 -15t-20.5 -20.5t-16 -25t-10.5 -28.5t-3.5 -31q0 -55 38.5 -94.5t94.5 -39.5q27 0 51.5 10.5t42.5 28t29 42.5t11 53q-3 37 -21 68t-47.5 48t-65.5 17zM576 412q-28 0 -47 19t-19 48q0 18 8.5 33.5t24 24t33.5 8.5q29 0 48 -19
t19 -47q0 -8 -2 -16t-5.5 -14.5t-8.5 -12t-10.5 -10t-12 -8t-14 -5t-14.5 -1.5zM576 -17q22 0 64.5 30.5t91 81.5t93.5 111t74.5 127.5t29.5 121.5q0 56 -18 108.5t-50.5 94.5t-75.5 73.5t-97 49t-112 17.5q-96 0 -177 -46t-128 -125t-47 -172q0 -41 16 -89t43 -92.5t60 -88
t68.5 -79.5t68 -64t58 -43.5t38.5 -15.5zM576 726q78 0 143.5 -37t104 -100.5t38.5 -138.5q0 -53 -36 -122t-85.5 -125.5t-95 -98.5t-69.5 -54q-23 12 -68.5 53.5t-95 97.5t-85.5 125t-36 124q0 117 83 196.5t202 79.5zM938 231h-43q-9 -16 -47 -67h57l129 -228h-396
q-6 -9 -14 -18t-12 -12l-7 -8q-7 -8 -12 -8t-12 8l-7 8q-4 3 -12 12t-14 18h-405l109 228h53q-8 10 -17 22t-18.5 23.5t-17.5 21.5h-42l-196 -362h510q11 -13 25 -28t20 -21.5t12 -12.5q8 -16 24 0l21 24q22 24 36 38h505z" />
    <glyph glyph-name="uniE602" unicode="&#xe602;" 
d="M924 88l-224 152h-9q-54 6 -112 -49l-3 -3q-25 21 -49.5 50t-42 55t-31 49t-21 37t-8.5 14v5q-2 6 -3.5 11t-1.5 6v2q0 4 5 4q27 11 43 25t24 33q7 28 0 42l-91 267q-4 4 -12.5 6.5t-17.5 3t-17.5 1t-13.5 -0.5h-6h-4q-54 -5 -103 -34t-80 -67t-49.5 -76t-20.5 -66v-5v-5
q3 -87 25 -167.5t51 -137.5t73 -113.5t76 -88t75 -69.5q44 -37 85.5 -65.5t69 -43t49 -23t32.5 -12t12 -4.5l76 -19q2 0 5 -1t11.5 -1t16.5 2l5 5q16 7 38 23.5t44 37t39.5 38.5t33 35t17.5 18q33 34 33 72q2 15 -2.5 28t-10.5 20.5t-6 8.5zM857 12l-4 -5q-17 -22 -63 -69
t-71 -60h-5l-61 15q-3 0 -29 11t-70.5 36t-95 60.5t-103.5 90.5t-96 118.5t-71.5 151.5t-30.5 184q0 33 19.5 67.5t61.5 63.5t95 36h10l71 -210q-2 -2 -4.5 -3t-6.5 -2.5t-8 -3.5l-6 -3q-6 -3 -8.5 -4.5t-8.5 -5.5t-10 -8.5t-8 -11.5t-6 -15q-11 -41 9 -81q2 -2 10 -17
t18.5 -34t27.5 -45.5t35.5 -51.5t43.5 -52t51 -47q14 -15 48 -15q21 0 42 29q22 21 43 28l196 -133z" />
    <glyph glyph-name="uniE603" unicode="&#xe603;" 
d="M805 379l-243 242v-819h-86v824l-271 -228l-43 85l357 315l357 -343z" />
    <glyph glyph-name="uniE604" unicode="&#xe604;" 
d="M876 150l-357 -343l-357 314l43 86l271 -228v819h86v-819l243 242z" />
    <glyph glyph-name="uniE605" unicode="&#xe605;" 
d="M536 136q55 0 108.5 26t94.5 70t66.5 106.5t25.5 130.5q0 95 -19.5 160.5t-59 103t-92 53.5t-124.5 16q-25 0 -49 -2.5t-48 -9.5t-45.5 -17t-41.5 -25t-37 -34t-31 -44t-23.5 -55t-14.5 -67t-5 -79q0 -136 91 -236q83 -90 189 -97h15zM945 -12q-4 9 -14.5 22.5t-58 43
t-112.5 44.5q-2 -3 -5 -7t-14 -15t-23 -21.5t-32 -23t-41.5 -21.5t-50 -15.5t-58.5 -6.5h-76q-122 0 -207 90l-17 20q-24 -7 -45.5 -14.5t-38 -15t-30.5 -16t-24.5 -16.5t-18.5 -15t-13.5 -13t-9 -10.5t-4.5 -7.5l-2 -2q-21 -41 -25 -75.5t5 -54t23 -33t23.5 -18.5t11.5 -5
h372h76h371q13 0 30 8.5t31.5 25.5t22 39t-3.5 52t-42 61z" />
    <glyph glyph-name="uniE606" unicode="&#xe606;" 
d="M388 779q-3 3 -12.5 3.5t-25.5 0.5h-19h-5q-43 -4 -82.5 -23.5t-67 -46.5t-48 -57.5t-30.5 -56.5t-10 -44v-5q3 -82 22.5 -157.5t47 -132t68 -111t76.5 -91t81 -75.5q59 -50 112.5 -83.5t80.5 -45t46 -14.5h4l72 -19q14 -4 28 0l5 5q35 16 91.5 72.5t70.5 80.5
q19 16 26 32.5t7 33.5q0 10 -3 19.5t-7 15.5t-7.5 9.5t-5.5 3.5l-220 152h-4q-29 3 -59.5 -14.5t-40.5 -32.5l-10 -10l-9 10q-41 34 -79 85.5t-56 85.5t-18 38l-3 7q-1 5 -2 7t-1.5 4.5t0 5t1.5 5.5l10 9h5q48 21 62 48q8 25 0 33q-12 33 -33 91.5t-37.5 105t-20.5 56.5z
M417 498q-4 -4 -10.5 -7t-13.5 -3q-1 0 -3.5 -1.5t-4 -2t-4.5 -2t-4.5 -3t-4.5 -4t-5.5 -4.5t-5 -5t-4.5 -6t-4 -7t-3 -8q-11 -34 10 -71q1 -2 7 -13.5t14.5 -26.5t20 -34.5t27 -41t32 -42.5t37.5 -42.5t43 -37.5q15 -16 38 -10q17 0 33 24q26 26 48 33h4l205 -138v-5
q7 -14 -14 -28l-5 -5q-6 -8 -22 -25.5t-36 -39t-42.5 -41t-37.5 -27.5h-5h-9l-53 14q-2 0 -28 11.5t-71 37t-96.5 61.5t-105 91.5t-97 120.5t-72 154t-30.5 186q-4 57 50 114t136 67l19 -5l76 -224z" />
    <glyph glyph-name="uniE607" unicode="&#xe607;" horiz-adv-x="1144" 
d="M1038 -198q-27 0 -104 43q-21 13 -44 23t-33 10q-137 -76 -285 -76q-111 0 -212.5 39t-175 104.5t-117 156.5t-43.5 191t43.5 192.5t117 159.5t175 107.5t212 40.5t212 -39.5t175 -106t117 -158t43.5 -191.5q0 -152 -95 -277q0 -16 24 -76q14 -33 19.5 -47t10.5 -34.5
t0.5 -33.5t-16.5 -23q-1 0 -4 -0.5t-6 -1.5t-6.5 -2t-7.5 -1zM572 731q-99 0 -189 -34.5t-155 -92.5t-103.5 -138.5t-38.5 -168t38.5 -168t103.5 -138.5t155 -92.5t189 -34.5q143 0 261 67q11 5 23 5.5t28 -5t33.5 -14.5t44.5 -24q6 -4 15.5 -9t22.5 -11t19 -9q-3 15 -10 31
t-14 26v1v1l-1 1v1l-1 2v1l-1 1v2l-1 1l-1 1v2l-1 1v1l-1 2v1l-1 1v1l-1 2v1l-1 1v2l-1 1l-1 1v2l-1 1v1l-1 1v2l-1 1v1l-1 2v1l-1 1v1v2l-1 1v1l-1 1v2l-1 1v1l-1 1v2v1l-1 1v1l-1 2v1v1l-1 1v1v2l-1 1v1v1l-1 2v1v1l-1 1v1v2v1l-1 1v1v1l-1 24q0 2 1 4v1v1l1 2v1v1l1 1v1
l1 1v1v1l1 1l1 1v1l1 1l1 1v1l1 1l1 2q86 107 86 243q0 121 -65.5 222t-178 158.5t-246.5 57.5zM352 298zM295 298q0 23 17 40t40 17q12 0 22.5 -4.5t18.5 -12.5t12.5 -18.5t4.5 -21.5q0 -10 -3 -18.5t-8.5 -15.5t-12.5 -12.5t-15.5 -8.5t-18.5 -3q-7 0 -14.5 2.5t-14 6
t-11.5 9t-9 11.5t-6 13.5t-2 15.5zM572 298zM514 298q0 11 4.5 21.5t12.5 18.5t18.5 12.5t22.5 4.5q23 0 40 -17t17 -40q0 -12 -4.5 -22.5t-12.5 -18t-18.5 -12.5t-21.5 -5q-24 0 -41 17t-17 41zM795 298zM738 297.5q0 23.5 17 40.5t40.5 17t40.5 -17t17 -40.5t-17 -40.5
t-40.5 -17t-40.5 17t-17 40.5z" />
    <glyph glyph-name="uniE608" unicode="&#xe608;" horiz-adv-x="1837" 
d="M878 774q-15 -17 -233 -244.5t-429 -446.5l-211 -219l82 -49l829 840l829 -834l75 48l-866 910q-2 -1 -13 5.5t-29 6.5t-34 -17z" />
    <glyph glyph-name="uniE609" unicode="&#xe609;" 
d="M517 807q-76 0 -146 -28.5t-121.5 -77.5t-82.5 -117t-31 -143q0 -62 38 -149t91.5 -168t108 -153t91.5 -115l37 -44q8 8 22 23t53.5 60.5t75.5 91t80 108.5t75.5 119.5t53 117.5t21.5 109q7 99 -42 184.5t-136 133.5t-188 48zM517 340q-17 0 -34.5 6.5t-32.5 19t-27 28.5
t-18.5 37t-6.5 43q0 57 38 95t95 38q18 0 35 -4.5t31.5 -13t27 -20.5t21.5 -26.5t13.5 -32t4.5 -36.5q0 -58 -41.5 -96t-105.5 -38z" />
    <glyph glyph-name="uniE60A" unicode="&#xe60a;" horiz-adv-x="1615" 
d="M1029 136h-448q-16 0 -24.5 9.5t0.5 23.5q3 4 25.5 33t53.5 69t62.5 80t55 71t27.5 38q7 10 24 10t24 -10q9 -10 101.5 -131t122.5 -160q11 -11 4 -22t-28 -11z" />
    <glyph glyph-name="uniE60B" unicode="&#xe60b;" horiz-adv-x="1615" 
d="M1057 436q-5 -7 -59.5 -77.5t-107 -139t-57.5 -74.5q-4 -7 -13.5 -9.5t-19.5 0t-14 9.5q-13 13 -116.5 145t-112.5 146q-13 13 5 24q9 4 19 4h448q13 0 22 -5t9.5 -11.5t-3.5 -11.5z" />
    <glyph glyph-name="uniE60C" unicode="&#xe60c;" horiz-adv-x="1034" 
d="M1014 707l-400 -400l400 -400l-104 -105l-400 400l-400 -400l-105 105l400 400l-395 386l104 105l400 -386l400 400z" />
    <glyph glyph-name="uniE60D" unicode="&#xe60d;" 
d="M381 798h-305q-30 0 -49 -30q-8 -14 -8 -27v-305q0 -30 30 -49q14 -8 27 -8h305q30 0 49 29q8 14 8 28v305q5 29 -25 47q-15 9 -32 10zM938 798h-305q-14 0 -27 -8.5t-21.5 -21.5t-8.5 -27v-305q0 -30 30 -49q14 -8 27 -8h305q22 0 39.5 17.5t17.5 39.5v305q0 49 -44 56
q-7 1 -13 1zM381 231h-305q-30 0 -49 -30q-8 -14 -8 -27v-305q0 -21 18 -39t39 -18h305q30 0 49 30q8 14 8 27v305v2l1 2v2v1v2v2v1l-1 2q-3 35 -44 42q-6 1 -13 1zM938 231h-305q-21 0 -39 -18t-18 -39v-305q0 -21 18 -39t39 -18h305q22 0 39.5 18t17.5 39v305v2v2v2v1v2v2
q-12 43 -57 46z" />
    <glyph glyph-name="uniE60E" unicode="&#xe60e;" horiz-adv-x="1029" 
d="M924 793h-829q-15 0 -31 -8.5t-28 -25.5t-12 -37v-72q0 -24 20.5 -47.5t50.5 -23.5h829q24 0 47.5 20.5t23.5 50.5v72q0 29 -23.5 50t-47.5 21zM924 398h-829q-15 0 -31 -9t-28 -26t-12 -37v-71q0 -24 20.5 -48t50.5 -24h829q6 0 13 2t14 5t13.5 7.5t12 11t10 13.5
t6.5 15.5t2 17.5v76q0 30 -23 48.5t-48 18.5zM924 21h-829q-24 0 -47.5 -20.5t-23.5 -50.5v-72q0 -23 20.5 -47t50.5 -24h829q9 0 18.5 3.5t19 9.5t17 14.5t12 20t4.5 23.5v86q0 14 -11.5 27.5t-28.5 21.5t-31 8z" />
    <glyph glyph-name="uniE60F" unicode="&#xe60f;" 
d="M1005 420q5 -5 8 -11t4.5 -13t1.5 -14.5t-1.5 -14t-4.5 -13t-8 -10.5l-453 -453q-14 -14 -37.5 -14t-38.5 14l-452 453q-14 14 -14 37.5t14 38.5l452 452q15 14 38.5 14t37.5 -14z" />
    <glyph glyph-name="uniE610" unicode="&#xe610;" 
d="M960 -141l-27 -27q-10 -10 -27 -10t-31 10l-150 169q-51 -42 -118 -63t-130 -21q-87 0 -166.5 34t-137.5 92t-92 137.5t-34 166t34 166t92 137.5t137.5 92.5t166.5 34.5q69 0 134.5 -22t118.5 -62t93 -93t62 -118.5t22 -134.5q0 -78 -23.5 -148.5t-74.5 -131.5l151 -150
q13 -14 13 -31t-13 -27zM477 661q-137 0 -228.5 -91.5t-91.5 -227.5t91.5 -227.5t228 -91.5t228 91.5t91.5 227.5q0 66 -27 126t-71 102t-102.5 66.5t-118.5 24.5z" />
    <glyph glyph-name="uniE611" unicode="&#xe611;" 
d="M514 891q-103 0 -196.5 -40t-161 -108t-107 -161.5t-39.5 -195.5q0 -69 18 -134.5t51 -121t79.5 -102t102 -78.5t120.5 -50t133 -18q83 0 160.5 25.5t139.5 72.5t108.5 109t71.5 139t25 158q0 59 -13.5 115.5t-38.5 106t-59.5 93.5t-78.5 78.5t-93.5 59.5t-106 38.5
t-115.5 13.5zM514 -47q-58 0 -114 15.5t-103.5 43.5t-88 68.5t-68.5 88t-43.5 103.5t-15.5 114q0 88 34.5 168.5t92.5 138.5t138.5 92.5t168 34.5t168 -34.5t138.5 -92.5t92.5 -138.5t34.5 -168t-34.5 -168t-92.5 -138.5t-138.5 -92.5t-168.5 -34.5z" />
    <glyph glyph-name="uniE612" unicode="&#xe612;" 
d="M85 291zM828 493q-11 0 -18.5 -8t-7.5 -19v-532q0 -7 -3.5 -13t-10 -9.5t-13.5 -3.5h-532q-11 0 -18.5 7.5t-7.5 18.5v532q0 11 -8 19t-19 8q-7 0 -13 -3.5t-9.5 -10t-3.5 -13.5v-532q0 -21 10.5 -39.5t29 -29t39.5 -10.5h532q22 0 40.5 10.5t29 29t10.5 39.5v532
q0 11 -8 19t-19 8zM376 -25v491q0 11 -7.5 19t-18.5 8q-7 0 -13.5 -3.5t-10 -10t-3.5 -13.5v-491q0 -11 8 -19t19 -8q4 0 8 1.5t7.5 4t6 5.5t3.5 7t1 9zM695 -25v491q0 11 -7.5 19t-18.5 8t-19 -8t-8 -19v-491q0 -11 8 -19t19 -8q7 0 13 3.5t9.5 10t3.5 13.5zM908 599h-159
q-14 0 -22 11l-47 64q-7 9 -18 16t-23 11.5t-23 4.5h-213q-9 0 -18 -2.5t-17.5 -7t-16 -10.5t-12.5 -12l-48 -64q-1 -2 -3.5 -4t-5.5 -3.5t-6.5 -2.5t-5.5 -1h-160q-7 0 -13 -3.5t-9.5 -9.5t-3.5 -13q0 -5 1.5 -9t3.5 -7t5.5 -5.5t7.5 -4t8 -1.5h160q17 0 35 9t29 23l48 64
q2 3 9 6.5t12 3.5h213q13 0 21 -10l48 -64q10 -14 28 -23t36 -9h159q7 0 13.5 3.5t10 9.5t3.5 14q0 5 -2 10t-6 8.5t-8.5 5.5t-10.5 2z" />
    <glyph glyph-name="uniE613" unicode="&#xe613;" 
d="M948 886h-877q-12 0 -23.5 -5t-19.5 -13t-13 -19.5t-5 -23.5v-877q0 -16 8 -30.5t22.5 -23t30.5 -8.5h877q16 0 30.5 8.5t23 23t8.5 30.5v872q0 19 -7.5 34t-22 23.5t-32.5 8.5zM948 -23q0 -7 -2.5 -13.5t-7 -10.5t-11 -7t-13.5 -3h-814q-14 0 -23.5 9.5t-9.5 24.5v814
q0 15 9.5 24.5t23.5 9.5h814q7 0 13.5 -3t11 -7t7 -10.5t2.5 -13.5v-814z" />
    <glyph glyph-name="uniE614" unicode="&#xe614;" 
d="M510 307q52 0 96.5 50.5t44.5 118.5q0 89 -38.5 131t-102.5 42q-31 0 -55.5 -8.5t-44.5 -27t-30.5 -52.5t-10.5 -81q1 -36 14 -68.5t33 -55t44.5 -36t49.5 -13.5zM510 896q-104 0 -198.5 -40.5t-162.5 -108.5t-108.5 -162.5t-40.5 -198.5t40.5 -198.5t108.5 -163
t162.5 -108.5t198.5 -40q70 0 136 18t122 51t103 80t80 103t51 122t18 136q1 69 -17 135.5t-50.5 122.5t-80 103t-103.5 79.5t-122.5 51t-136.5 18.5zM510 -65q-91 0 -174.5 35.5t-144 95.5t-96.5 144t-36 176q1 91 37.5 174t96.5 142.5t143 95t174 35.5t174.5 -35.5
t144 -95t96.5 -142.5t36 -174q0 -93 -35.5 -176.5t-95.5 -143.5t-143.5 -95.5t-176.5 -35.5zM636 307q-2 -2 -5 -6t-13.5 -14.5t-22 -18.5t-29.5 -15t-36 -8h-32q-60 3 -103 58l-3 4q-15 -3 -28.5 -8t-22.5 -11t-17 -12t-12.5 -11.5t-7.5 -10.5l-5 -7l-1 -2
q-18 -35 -14.5 -56t16.5 -30l14 -8h188h32h184q2 1 5.5 3t11 9.5t11 17.5t1.5 27t-13 37q-2 0 -4 2t-5 5.5t-7 7.5l-10 10q-5 5 -12.5 10.5t-16 10.5t-20 9.5t-23.5 6.5z" />
    <glyph glyph-name="uniE615" unicode="&#xe615;" 
d="M232 363l491 -491l79 79l-431 435l431 431l-79 79l-491 -487q-1 0 -2.5 -2t-4 -7t-3.5 -10.5t1.5 -12.5t8.5 -14z" />
    <glyph glyph-name="uniE616" unicode="&#xe616;" 
d="M792 363l-491 -491l-79 79l431 431l-431 435l79 79l491 -487q23 -23 0 -46z" />
    <glyph glyph-name="uniE617" unicode="&#xe617;" 
d="M1019 386q0 104 -40.5 198.5t-108.5 162.5t-162.5 108.5t-198 40.5t-198 -40.5t-162.5 -108.5t-108.5 -162.5t-40.5 -198t40.5 -198t109 -162.5t164 -108.5t200.5 -40.5q104 0 198 40.5t162 108.5t107.5 162.5t37.5 197.5zM710 334q-2 -4 -46.5 -48.5t-90 -90.5
t-49.5 -52q-2 -4 -8 -6t-12 0t-9 6q-176 177 -185 191q-4 7 0 13t14 6h148v267q0 10 8.5 19t19.5 9h24q7 0 13.5 -4t10.5 -10.5t4 -13.5v-267h148q8 0 12 -6t-2 -13z" />
    <glyph glyph-name="uniE618" unicode="&#xe618;" 
d="M514 896q-105 0 -200.5 -40.5t-164 -108.5t-109 -162.5t-40.5 -198t40.5 -198t108.5 -162.5t162.5 -108.5t198 -40.5t198 40.5t162.5 108.5t108.5 162.5t40.5 197.5q2 83 -23 161t-71.5 140.5t-109 109.5t-140.5 73t-161 26zM700 420h-148v-267q0 -18 -18 -26
q-5 -2 -10 -3h-24q-11 0 -19.5 9t-8.5 20v267h-148q-24 0 -14 19q9 14 185 190q2 4 6 5.5t8.5 1.5t8.5 -1.5t6 -5.5q5 -7 94 -96t92 -94q6 -7 2 -13t-12 -6z" />
    <glyph glyph-name="uniE619" unicode="&#xe619;" 
d="M948 886h-877q-12 0 -23.5 -5t-19.5 -13t-13 -19.5t-5 -23.5v-877q0 -16 8 -30.5t22.5 -23t30.5 -8.5h877q16 0 30.5 8.5t23 23t8.5 30.5v872q0 19 -7.5 34t-22 23.5t-32.5 8.5zM948 -23q0 -7 -2.5 -13.5t-7 -10.5t-11 -7t-13.5 -3h-814q-14 0 -23.5 9.5t-9.5 24.5v814
q0 15 9.5 24.5t23.5 9.5h814q7 0 13.5 -3t11 -7t7 -10.5t2.5 -13.5v-814zM772 510l-300 -314q-21 -14 -39 -5l-176 167q-7 7 -4 19.5t14 23.5l19 14q7 7 15 11t15.5 3.5t12.5 -5.5l128 -119l253 267q7 7 19.5 4t23.5 -13l19 -15q4 -9 5 -19t-5 -19z" />
    <glyph glyph-name="uniE61A" unicode="&#xe61a;" horiz-adv-x="1237" 
d="M293 -116l161 -12zM685 896zM593 326q71 41 113 108t42 151q0 48 -15 92.5t-42 80.5t-63.5 63.5t-81 42.5t-92.5 15q-120 0 -206.5 -86.5t-86.5 -207.5q0 -53 19.5 -103.5t54.5 -90t81 -65.5q-85 -28 -153.5 -88t-108.5 -142t-42 -172h57q2 76 33.5 144.5t83.5 117.5
t122 77.5t146 28.5q102 0 189 -50t139 -134.5t58 -183.5h57q-4 140 -88.5 249.5t-215.5 152.5zM454 349q-95 0 -165 69t-70 167q0 47 18 90.5t49.5 75.5t75.5 51t92 19q96 0 166 -68.5t70 -167.5t-68 -167.5t-168 -68.5zM915 326q46 27 80.5 65t54.5 88t20 106
q0 121 -86.5 207.5t-206.5 86.5h-11q-4 0 -10.5 -0.5t-10.5 -0.5t-9 -1l-12 -2q-5 -1 -11 -2q14 -13 23 -52q5 0 18 3t23 3q96 0 165.5 -69t69.5 -167q0 -96 -68.5 -166t-166.5 -70h-12q14 -27 6 -57h6q101 0 188 -50t139 -134.5t58 -183.5h58q-5 136 -89.5 244.5
t-215.5 151.5z" />
    <glyph glyph-name="uniE61B" unicode="&#xe61b;" horiz-adv-x="1030" 
d="M518 -122q-82 0 -159 26t-139 73t-109.5 109t-73 139t-25.5 159q0 102 40.5 195.5t108.5 161.5t161.5 108.5t195.5 40.5q68 0 133.5 -18.5t121 -51t102.5 -79.5t79.5 -102.5t51 -121t18.5 -133.5q-2 -102 -43 -195.5t-108.5 -161.5t-160 -108.5t-194.5 -40.5zM518 831
q-91 0 -174 -35.5t-143 -95t-95 -142.5t-35 -174t35 -174t95 -142.5t143 -95t174 -35.5q73 0 141 22.5t123 64t96.5 96.5t64 123t22.5 141q0 41 -7.5 80.5t-21 75.5t-33.5 69.5t-45 62.5t-54 54t-62.5 44.5t-69.5 33t-75 20.5t-79 7zM694 555l-194 -183l-106 112l-82 -76
l188 -183l271 259z" />
    <glyph glyph-name="uniE61C" unicode="&#xe61c;" horiz-adv-x="1054" 
d="M819 -116q-6 0 -41 11l-210 112q-7 3 -15.5 5t-17 3t-17.5 0t-17 -3t-15 -5l-211 -112q-35 -17 -70 0q-32 22 -24 65l41 240q5 16 -5 42t-24 40l-170 169q-33 33 -17 65q17 35 53 41l239 35q19 4 40 19t25 28l105 216q25 41 59 41q16 0 26 -10t20 -31l106 -216
q9 -19 28 -33t36 -14l240 -35q19 -3 31.5 -11t17 -15.5t4.5 -14.5q9 -29 -18 -65l-170 -169q-12 -13 -20.5 -36.5t-8.5 -45.5l41 -240q7 -40 -17 -65q0 -11 -24 -11zM70 486l170 -169q23 -23 36 -61.5t5 -67.5l-41 -240h-2h8l210 111q10 5 20.5 8.5t21 6t21 3t20.5 0t20 -3
t19.5 -6t18.5 -8.5l210 -111h6l-41 240q-4 31 8 69t33 60l170 169h-6l-240 36q-56 6 -111 76l-105 216l-106 -216q-5 -17 -23 -34t-41 -29.5t-47 -18.5z" />
    <glyph glyph-name="uniE61D" unicode="&#xe61d;" horiz-adv-x="1060" 
d="M583 31q-15 9 -34.5 12t-40 0t-37.5 -12l-212 -112q-22 -13 -37 -3t-10 33l41 241q3 17 -1 37.5t-13 38.5t-21 30l-171 170q-27 28 -5 45h1v1h1l1 1h1l1 1h1l1 1h1l1 1h1h1l1 1h1h1l1 1h1h1h1v1h1h1h1h2l241 36q7 1 15 3.5t16 6.5t15 8.5t13.5 10t12 11.5t10 12t6.5 12
l106 218q13 22 28.5 22t24.5 -22l106 -218q5 -8 12.5 -17t16.5 -16.5t18.5 -14t20 -11t20.5 -5.5l242 -36h2q35 -7 29 -32q-3 -10 -14 -21l-170 -170q-18 -18 -29 -49t-7 -57l42 -241q2 -18 -2.5 -27.5t-16 -10.5t-29.5 8z" />
    <glyph glyph-name="uniE61E" unicode="&#xe61e;" horiz-adv-x="1030" 
d="M12 825q0 27 19 46t46 19h882q27 0 46 -19t19 -46v-882q0 -18 -9 -33t-23.5 -23.5t-32.5 -8.5h-882q-27 0 -46 19t-19 46v882zM683 513l-183 -170l-100 106l-76 -71l176 -171l253 242z" />
  </font>
</defs>
</svg>
